<mxfile host="Electron" modified="2024-12-14T05:55:13.647Z" agent="Mozilla/5.0 (Windows NT 10.0; Win64; x64) AppleWebKit/537.36 (KHTML, like Gecko) draw.io/23.0.2 Chrome/120.0.6099.109 Electron/28.1.0 Safari/537.36" etag="xJBTDA8SyCEPdcQHrOi1" version="23.0.2" type="device">
  <diagram name="第 1 页" id="oTLM0TBHhY2AAO6pwqFZ">
    <mxGraphModel dx="833" dy="559" grid="0" gridSize="10" guides="1" tooltips="1" connect="1" arrows="1" fold="1" page="1" pageScale="1" pageWidth="827" pageHeight="1169" math="0" shadow="0">
      <root>
        <mxCell id="0" />
        <mxCell id="1" parent="0" />
        <mxCell id="a1zW-9_zWKC24xzEMHU--10" style="shape=connector;rounded=0;orthogonalLoop=1;jettySize=auto;html=1;exitX=0;exitY=1;exitDx=0;exitDy=0;entryX=1;entryY=0;entryDx=0;entryDy=0;labelBackgroundColor=default;strokeColor=default;align=center;verticalAlign=middle;fontFamily=Helvetica;fontSize=11;fontColor=default;endArrow=classic;startArrow=classic;startFill=1;dashed=1;" edge="1" parent="1" source="a1zW-9_zWKC24xzEMHU--1" target="a1zW-9_zWKC24xzEMHU--3">
          <mxGeometry relative="1" as="geometry" />
        </mxCell>
        <mxCell id="a1zW-9_zWKC24xzEMHU--13" value="&lt;font style=&quot;font-size: 15px;&quot;&gt;读写&lt;/font&gt;" style="edgeLabel;html=1;align=center;verticalAlign=middle;resizable=0;points=[];fontSize=11;fontFamily=Helvetica;fontColor=default;fontStyle=0" vertex="1" connectable="0" parent="a1zW-9_zWKC24xzEMHU--10">
          <mxGeometry x="0.0098" relative="1" as="geometry">
            <mxPoint as="offset" />
          </mxGeometry>
        </mxCell>
        <mxCell id="a1zW-9_zWKC24xzEMHU--12" style="shape=connector;rounded=0;orthogonalLoop=1;jettySize=auto;html=1;exitX=1;exitY=1;exitDx=0;exitDy=0;entryX=0;entryY=0;entryDx=0;entryDy=0;labelBackgroundColor=default;strokeColor=default;align=center;verticalAlign=middle;fontFamily=Helvetica;fontSize=11;fontColor=default;endArrow=classic;startArrow=classic;startFill=1;dashed=1;" edge="1" parent="1" source="a1zW-9_zWKC24xzEMHU--1" target="a1zW-9_zWKC24xzEMHU--2">
          <mxGeometry relative="1" as="geometry" />
        </mxCell>
        <mxCell id="a1zW-9_zWKC24xzEMHU--17" value="&lt;font style=&quot;font-size: 15px;&quot;&gt;读写&lt;/font&gt;" style="edgeLabel;html=1;align=center;verticalAlign=middle;resizable=0;points=[];fontSize=11;fontFamily=Helvetica;fontColor=default;" vertex="1" connectable="0" parent="a1zW-9_zWKC24xzEMHU--12">
          <mxGeometry x="-0.092" y="-1" relative="1" as="geometry">
            <mxPoint as="offset" />
          </mxGeometry>
        </mxCell>
        <mxCell id="a1zW-9_zWKC24xzEMHU--20" style="edgeStyle=none;shape=connector;rounded=0;orthogonalLoop=1;jettySize=auto;html=1;exitX=0.5;exitY=1;exitDx=0;exitDy=0;entryX=0.5;entryY=0;entryDx=0;entryDy=0;labelBackgroundColor=default;strokeColor=default;align=center;verticalAlign=middle;fontFamily=Helvetica;fontSize=11;fontColor=default;endArrow=classic;startArrow=classic;startFill=1;" edge="1" parent="1" source="a1zW-9_zWKC24xzEMHU--1" target="a1zW-9_zWKC24xzEMHU--18">
          <mxGeometry relative="1" as="geometry" />
        </mxCell>
        <mxCell id="a1zW-9_zWKC24xzEMHU--22" value="&lt;font style=&quot;font-size: 15px;&quot;&gt;读写&lt;/font&gt;" style="edgeLabel;html=1;align=center;verticalAlign=middle;resizable=0;points=[];fontSize=11;fontFamily=Helvetica;fontColor=default;" vertex="1" connectable="0" parent="a1zW-9_zWKC24xzEMHU--20">
          <mxGeometry x="-0.2744" y="1" relative="1" as="geometry">
            <mxPoint as="offset" />
          </mxGeometry>
        </mxCell>
        <mxCell id="a1zW-9_zWKC24xzEMHU--23" value="&lt;font style=&quot;font-size: 14px;&quot;&gt;commit提交&lt;/font&gt;" style="edgeLabel;html=1;align=center;verticalAlign=middle;resizable=0;points=[];fontSize=11;fontFamily=Helvetica;fontColor=default;" vertex="1" connectable="0" parent="a1zW-9_zWKC24xzEMHU--20">
          <mxGeometry x="0.3052" y="-1" relative="1" as="geometry">
            <mxPoint x="1" y="-4" as="offset" />
          </mxGeometry>
        </mxCell>
        <mxCell id="a1zW-9_zWKC24xzEMHU--21" style="edgeStyle=none;shape=connector;rounded=0;orthogonalLoop=1;jettySize=auto;html=1;exitX=0.5;exitY=1;exitDx=0;exitDy=0;entryX=0.5;entryY=0;entryDx=0;entryDy=0;labelBackgroundColor=default;strokeColor=default;align=center;verticalAlign=middle;fontFamily=Helvetica;fontSize=11;fontColor=default;endArrow=classic;startArrow=classic;startFill=1;" edge="1" parent="1" source="a1zW-9_zWKC24xzEMHU--1" target="a1zW-9_zWKC24xzEMHU--19">
          <mxGeometry relative="1" as="geometry" />
        </mxCell>
        <mxCell id="a1zW-9_zWKC24xzEMHU--24" value="&lt;font style=&quot;font-size: 14px;&quot;&gt;commit提交&lt;/font&gt;" style="edgeLabel;html=1;align=center;verticalAlign=middle;resizable=0;points=[];fontSize=11;fontFamily=Helvetica;fontColor=default;" vertex="1" connectable="0" parent="a1zW-9_zWKC24xzEMHU--21">
          <mxGeometry x="0.2252" relative="1" as="geometry">
            <mxPoint x="-5" y="2" as="offset" />
          </mxGeometry>
        </mxCell>
        <mxCell id="a1zW-9_zWKC24xzEMHU--25" value="&lt;font style=&quot;font-size: 15px;&quot;&gt;读写&lt;/font&gt;" style="edgeLabel;html=1;align=center;verticalAlign=middle;resizable=0;points=[];fontSize=11;fontFamily=Helvetica;fontColor=default;" vertex="1" connectable="0" parent="a1zW-9_zWKC24xzEMHU--21">
          <mxGeometry x="-0.2749" y="-2" relative="1" as="geometry">
            <mxPoint as="offset" />
          </mxGeometry>
        </mxCell>
        <mxCell id="a1zW-9_zWKC24xzEMHU--1" value="Leader" style="ellipse;whiteSpace=wrap;html=1;aspect=fixed;fillColor=#dae8fc;strokeColor=#6c8ebf;fontStyle=1" vertex="1" parent="1">
          <mxGeometry x="350" y="190" width="80" height="80" as="geometry" />
        </mxCell>
        <mxCell id="a1zW-9_zWKC24xzEMHU--2" value="Observer" style="ellipse;whiteSpace=wrap;html=1;aspect=fixed;fillColor=#d5e8d4;strokeColor=#82b366;fontStyle=1" vertex="1" parent="1">
          <mxGeometry x="540" y="330" width="80" height="80" as="geometry" />
        </mxCell>
        <mxCell id="a1zW-9_zWKC24xzEMHU--31" style="edgeStyle=none;shape=connector;rounded=0;orthogonalLoop=1;jettySize=auto;html=1;exitX=0;exitY=1;exitDx=0;exitDy=0;entryX=0.5;entryY=0;entryDx=0;entryDy=0;labelBackgroundColor=default;strokeColor=default;align=center;verticalAlign=middle;fontFamily=Helvetica;fontSize=11;fontColor=default;endArrow=classic;startArrow=classic;startFill=1;dashed=1;" edge="1" parent="1" source="a1zW-9_zWKC24xzEMHU--3" target="a1zW-9_zWKC24xzEMHU--26">
          <mxGeometry relative="1" as="geometry" />
        </mxCell>
        <mxCell id="a1zW-9_zWKC24xzEMHU--3" value="Observer" style="ellipse;whiteSpace=wrap;html=1;aspect=fixed;fillColor=#d5e8d4;strokeColor=#82b366;fontStyle=1" vertex="1" parent="1">
          <mxGeometry x="160" y="320" width="80" height="80" as="geometry" />
        </mxCell>
        <mxCell id="a1zW-9_zWKC24xzEMHU--18" value="&lt;b&gt;&lt;font style=&quot;font-size: 12px;&quot;&gt;Follower&lt;/font&gt;&lt;/b&gt;" style="ellipse;whiteSpace=wrap;html=1;aspect=fixed;fontFamily=Helvetica;fontSize=11;fillColor=#dae8fc;strokeColor=#6c8ebf;" vertex="1" parent="1">
          <mxGeometry x="250" y="430" width="80" height="80" as="geometry" />
        </mxCell>
        <mxCell id="a1zW-9_zWKC24xzEMHU--28" style="edgeStyle=none;shape=connector;rounded=0;orthogonalLoop=1;jettySize=auto;html=1;exitX=1;exitY=0.5;exitDx=0;exitDy=0;entryX=0;entryY=0.5;entryDx=0;entryDy=0;labelBackgroundColor=default;strokeColor=default;align=center;verticalAlign=middle;fontFamily=Helvetica;fontSize=11;fontColor=default;endArrow=classic;startArrow=classic;startFill=1;dashed=1;" edge="1" parent="1" source="a1zW-9_zWKC24xzEMHU--19" target="a1zW-9_zWKC24xzEMHU--27">
          <mxGeometry relative="1" as="geometry" />
        </mxCell>
        <mxCell id="a1zW-9_zWKC24xzEMHU--29" value="&lt;font style=&quot;font-size: 14px;&quot;&gt;读写&lt;/font&gt;" style="edgeLabel;html=1;align=center;verticalAlign=middle;resizable=0;points=[];fontSize=11;fontFamily=Helvetica;fontColor=default;" vertex="1" connectable="0" parent="a1zW-9_zWKC24xzEMHU--28">
          <mxGeometry x="-0.0324" relative="1" as="geometry">
            <mxPoint as="offset" />
          </mxGeometry>
        </mxCell>
        <mxCell id="a1zW-9_zWKC24xzEMHU--19" value="&lt;font style=&quot;font-size: 13px;&quot;&gt;Follower&lt;/font&gt;" style="ellipse;whiteSpace=wrap;html=1;aspect=fixed;fontFamily=Helvetica;fontSize=11;fillColor=#dae8fc;strokeColor=#6c8ebf;fontStyle=1" vertex="1" parent="1">
          <mxGeometry x="440" y="430" width="80" height="80" as="geometry" />
        </mxCell>
        <mxCell id="a1zW-9_zWKC24xzEMHU--26" value="&lt;font style=&quot;font-size: 14px;&quot;&gt;&lt;b&gt;Client&lt;/b&gt;&lt;/font&gt;" style="rounded=0;whiteSpace=wrap;html=1;fontFamily=Helvetica;fontSize=11;fillColor=#e1d5e7;strokeColor=#9673a6;" vertex="1" parent="1">
          <mxGeometry x="50" y="450" width="80" height="80" as="geometry" />
        </mxCell>
        <mxCell id="a1zW-9_zWKC24xzEMHU--27" value="&lt;font style=&quot;font-size: 14px;&quot;&gt;&lt;b&gt;Client&lt;/b&gt;&lt;/font&gt;" style="rounded=0;whiteSpace=wrap;html=1;fontFamily=Helvetica;fontSize=11;fillColor=#e1d5e7;strokeColor=#9673a6;" vertex="1" parent="1">
          <mxGeometry x="620" y="430" width="80" height="80" as="geometry" />
        </mxCell>
        <mxCell id="a1zW-9_zWKC24xzEMHU--32" value="" style="ellipse;whiteSpace=wrap;html=1;aspect=fixed;fontFamily=Helvetica;fontSize=11;fillColor=#dae8fc;strokeColor=#6c8ebf;" vertex="1" parent="1">
          <mxGeometry x="60" y="190" width="30" height="30" as="geometry" />
        </mxCell>
        <mxCell id="a1zW-9_zWKC24xzEMHU--33" value="&lt;font style=&quot;font-size: 14px;&quot;&gt;：参与Leader选举和写请求投票&lt;/font&gt;" style="text;html=1;strokeColor=none;fillColor=none;align=center;verticalAlign=middle;whiteSpace=wrap;rounded=0;fontSize=11;fontFamily=Helvetica;fontColor=default;fontStyle=1" vertex="1" parent="1">
          <mxGeometry x="90" y="190" width="210" height="30" as="geometry" />
        </mxCell>
        <mxCell id="a1zW-9_zWKC24xzEMHU--34" value="" style="ellipse;whiteSpace=wrap;html=1;aspect=fixed;fontFamily=Helvetica;fontSize=11;fillColor=#d5e8d4;strokeColor=#82b366;" vertex="1" parent="1">
          <mxGeometry x="60" y="230" width="30" height="30" as="geometry" />
        </mxCell>
        <mxCell id="a1zW-9_zWKC24xzEMHU--35" value="&lt;font style=&quot;font-size: 14px;&quot;&gt;：不参与ZAB&lt;/font&gt;" style="text;html=1;strokeColor=none;fillColor=none;align=center;verticalAlign=middle;whiteSpace=wrap;rounded=0;fontSize=11;fontFamily=Helvetica;fontColor=default;fontStyle=1" vertex="1" parent="1">
          <mxGeometry x="90" y="230" width="100" height="30" as="geometry" />
        </mxCell>
        <mxCell id="a1zW-9_zWKC24xzEMHU--36" value="&lt;font style=&quot;font-size: 14px;&quot;&gt;Follower，Observer接收写请求&lt;br&gt;将转发给Leader&lt;br&gt;&lt;/font&gt;" style="text;html=1;strokeColor=none;fillColor=none;align=center;verticalAlign=middle;whiteSpace=wrap;rounded=0;fontSize=11;fontFamily=Helvetica;fontColor=default;fontStyle=1" vertex="1" parent="1">
          <mxGeometry x="462.5" y="200" width="235" height="30" as="geometry" />
        </mxCell>
      </root>
    </mxGraphModel>
  </diagram>
</mxfile>
